# xmcd
#
# Track frame offsets: 
#        150
#        13384
#        24780
#        37060
#        51642
#        65799
#        77977
#        92376
#        104932
#        119861
#        131650
#        144111
#        157570
#        171678
#        185150
#        199848
#        214961
#        229926
#        244096
#        256241
#        270259
#        283788
#        298435
#
# Disc length: 4163 seconds
#
# Revision: 1
# Processed by: cddbd v1.5.2PL0 Copyright (c) Steve Scherf et al.
# Submitted via: ExactAudioCopyFreeDBPlugin 1.0
#
DISCID=71104117
DTITLE=Alberta Hunter - The Alberta Hunter Collection Collection 1921-
DTITLE=40 [CD3)
DYEAR=2017
DGENRE=Blues
TTITLE0=Alberta Hunter  with Perry Bradford's Mean Four - A Master Man
TTITLE0=With A Master Mind
TTITLE1=Alberta Hunter  with Perry Bradford's Mean Four - Don't Want I
TTITLE1=t All
TTITLE2=I'm Hard To Satisfy
TTITLE3=Empty Cellar Blues
TTITLE4=Double Crossin' Papa
TTITLE5=Alberta Hunter and Clarence Williams - You For Me, Me For You
TTITLE6=I'm Tired Blues
TTITLE7=Wasn't It Nice
TTITLE8=Everybody Mess Around
TTITLE9=Alberta Hunter  with Perry Bradford's Mean Four - Don't Forget
TTITLE9=To Mess Around
TTITLE10=Alberta Hunter  with Perry Bradford's Mean Four - Heebie Jeeb
TTITLE10=ies
TTITLE11=Alberta Hunter and Mike Jackson - I'll Forgive You 'Cause I Lov
TTITLE11=e You
TTITLE12=Alberta Hunter and Mike Jackson - I'm Gonna Lose Myself Way Dow
TTITLE12=n In Louisville
TTITLE13=Alberta Hunter and Mike Jackson - My Od Daddy'd Got A Brand New
TTITLE13=Way To Love
TTITLE14=Alberta Hunter and Mike Jackson - I'm Down Right Now, But I Won
TTITLE14='t Be Down Always
TTITLE15=Alberta Hunter and Fats Waller - Sugar
TTITLE16=Alberta Hunter and Fats Waller - Beale Street Blues
TTITLE17=Alberta Hunter and Fats Waller - I'm Going To See My Ma
TTITLE18=Gimme All The Love You Got
TTITLE19=My Particular Man
TTITLE20=Alberta Hunter  with Jack Jackson's Orchestra - Two Cigarette
TTITLE20=s In The Dark
TTITLE21=Alberta Hunter  with Jack Jackson's Orchestra - Miss Otis Reg
TTITLE21=rets (She's Unable To Lunch Today)
TTITLE22=Alberta Hunter  with Jack Jackson's Orchestra - Soon
EXTD=
EXTT0=
EXTT1=
EXTT2=
EXTT3=
EXTT4=
EXTT5=
EXTT6=
EXTT7=
EXTT8=
EXTT9=
EXTT10=
EXTT11=
EXTT12=
EXTT13=
EXTT14=
EXTT15=
EXTT16=
EXTT17=
EXTT18=
EXTT19=
EXTT20=
EXTT21=
EXTT22=
PLAYORDER=
